<svg width="128" height="128" viewBox="0 0 128 128" fill="none" xmlns="http://www.w3.org/2000/svg">
<rect width="128" height="128" fill="black"/>
<path d="M9.14288 64.0914V61.2571C11.5857 61.2571 13.2899 60.7238 14.2553 59.6571C15.2354 58.5905 15.7254 56.8076 15.7254 54.3086V46.9943C15.7254 44.8914 15.9156 43.0705 16.2959 41.5314C16.6908 39.9924 17.3272 38.72 18.2048 37.7143C19.0825 36.7086 20.2527 35.9619 21.7155 35.4743C23.1783 34.9867 24.9848 34.7429 27.1351 34.7429V39.2229C25.4383 39.2229 24.0998 39.4971 23.1198 40.0457C22.1543 40.5943 21.4668 41.4476 21.0573 42.6057C20.6623 43.7486 20.4648 45.2114 20.4648 46.9943V56.1371C20.4648 57.3257 20.3112 58.4076 20.0041 59.3829C19.7115 60.3581 19.163 61.1962 18.3584 61.8971C17.5539 62.5981 16.4056 63.139 14.9136 63.52C13.4362 63.901 11.5126 64.0914 9.14288 64.0914ZM27.1351 93.2571C24.9848 93.2571 23.1783 93.0133 21.7155 92.5257C20.2527 92.0381 19.0825 91.2914 18.2048 90.2857C17.3272 89.28 16.6908 88.0076 16.2959 86.4686C15.9156 84.9295 15.7254 83.1086 15.7254 81.0057V73.6914C15.7254 71.1924 15.2354 69.4095 14.2553 68.3429C13.2899 67.2762 11.5857 66.7429 9.14288 66.7429V63.9086C11.5126 63.9086 13.4362 64.099 14.9136 64.48C16.4056 64.861 17.5539 65.4019 18.3584 66.1029C19.163 66.8038 19.7115 67.6419 20.0041 68.6171C20.3112 69.5924 20.4648 70.6743 20.4648 71.8629V81.0057C20.4648 82.7886 20.6623 84.2514 21.0573 85.3943C21.4668 86.5371 22.1543 87.3829 23.1198 87.9314C24.0998 88.4952 25.4383 88.7771 27.1351 88.7771V93.2571ZM9.14288 66.7429V61.2571H14.3211V66.7429H9.14288Z" fill="white"/>
<path d="M118.857 63.9086V66.7429C116.414 66.7429 114.703 67.2762 113.723 68.3429C112.757 69.4095 112.275 71.1924 112.275 73.6914V81.0057C112.275 83.1086 112.077 84.9295 111.682 86.4686C111.302 88.0076 110.673 89.28 109.795 90.2857C108.918 91.2914 107.747 92.0381 106.285 92.5257C104.822 93.0133 103.015 93.2571 100.865 93.2571V88.7771C102.562 88.7771 103.893 88.4952 104.858 87.9314C105.838 87.3829 106.526 86.5371 106.921 85.3943C107.33 84.2514 107.535 82.7886 107.535 81.0057V71.8629C107.535 70.6743 107.682 69.5924 107.974 68.6171C108.281 67.6419 108.837 66.8038 109.642 66.1029C110.446 65.4019 111.587 64.861 113.065 64.48C114.557 64.099 116.487 63.9086 118.857 63.9086ZM100.865 34.7429C103.015 34.7429 104.822 34.9867 106.285 35.4743C107.747 35.9619 108.918 36.7086 109.795 37.7143C110.673 38.72 111.302 39.9924 111.682 41.5314C112.077 43.0705 112.275 44.8914 112.275 46.9943V54.3086C112.275 56.8076 112.757 58.5905 113.723 59.6571C114.703 60.7238 116.414 61.2571 118.857 61.2571V64.0914C116.487 64.0914 114.557 63.901 113.065 63.52C111.587 63.139 110.446 62.5981 109.642 61.8971C108.837 61.1962 108.281 60.3581 107.974 59.3829C107.682 58.4076 107.535 57.3257 107.535 56.1371V46.9943C107.535 45.2114 107.33 43.7486 106.921 42.6057C106.526 41.4476 105.838 40.5943 104.858 40.0457C103.893 39.4971 102.562 39.2229 100.865 39.2229V34.7429ZM118.857 61.2571V66.7429H113.679V61.2571H118.857Z" fill="white"/>
<circle cx="51.2295" cy="64.0295" r="22.2152" stroke="white" stroke-width="5"/>
<circle cx="75.9447" cy="64.0295" r="22.2152" fill="white" stroke="white" stroke-width="5"/>
</svg>
